<svg width="24" height="25" viewBox="0 0 24 25" fill="none" xmlns="http://www.w3.org/2000/svg">
<path d="M16 7.26958C16 6.71729 16.4477 6.26958 17 6.26958C17.5523 6.26958 18 6.71729 18 7.26958C18 7.82186 17.5523 8.26958 17 8.26958C16.4477 8.26958 16 7.82186 16 7.26958Z" fill="#C0304F"/>
<path fill-rule="evenodd" clip-rule="evenodd" d="M12 7.51958C9.37665 7.51958 7.25 9.64622 7.25 12.2696C7.25 14.8929 9.37665 17.0196 12 17.0196C14.6234 17.0196 16.75 14.8929 16.75 12.2696C16.75 9.64622 14.6234 7.51958 12 7.51958ZM8.75 12.2696C8.75 10.4747 10.2051 9.01958 12 9.01958C13.7949 9.01958 15.25 10.4747 15.25 12.2696C15.25 14.0645 13.7949 15.5196 12 15.5196C10.2051 15.5196 8.75 14.0645 8.75 12.2696Z" fill="#C0304F"/>
<path fill-rule="evenodd" clip-rule="evenodd" d="M17.2583 3.10259C13.7917 2.71515 10.2083 2.71515 6.74177 3.10259C4.72971 3.32747 3.10538 4.91248 2.86883 6.93501C2.45429 10.4793 2.45429 14.0598 2.86883 17.6041C3.10538 19.6267 4.72971 21.2117 6.74177 21.4366C10.2083 21.824 13.7917 21.824 17.2583 21.4366C19.2703 21.2117 20.8946 19.6267 21.1312 17.6041C21.5457 14.0598 21.5457 10.4793 21.1312 6.93501C20.8946 4.91248 19.2703 3.32747 17.2583 3.10259ZM6.90838 4.59331C10.2642 4.21825 13.7358 4.21825 17.0916 4.59331C18.4218 4.74197 19.4872 5.79158 19.6414 7.10926C20.0424 10.5378 20.0424 14.0014 19.6414 17.4299C19.4872 18.7476 18.4218 19.7972 17.0916 19.9458C13.7358 20.3209 10.2642 20.3209 6.90838 19.9458C5.57827 19.7972 4.51278 18.7476 4.35867 17.4299C3.95767 14.0014 3.95767 10.5378 4.35867 7.10926C4.51278 5.79158 5.57827 4.74197 6.90838 4.59331Z" fill="#C0304F"/>
</svg>
