<svg width="183" height="56" viewBox="0 0 183 56" fill="none" xmlns="http://www.w3.org/2000/svg">
<path opacity="0.9" d="M64.8758 18.6636C64.9504 19.5841 65.2738 20.405 65.846 21.1265C66.4182 21.8479 67.1397 22.445 68.0104 22.9177C68.8811 23.3904 69.8389 23.8506 70.8838 24.2984C71.9286 24.7462 72.961 25.2189 73.981 25.7164C75.0259 26.1891 75.9712 26.724 76.8171 27.321C77.6878 27.9181 78.3844 28.6893 78.9068 29.6347C79.4292 30.5551 79.6905 31.6124 79.6905 32.8066C79.6905 35.1699 78.7824 37.0607 76.9664 38.4787C75.1752 39.8718 72.8491 40.5684 69.9882 40.5684C67.1024 40.5684 64.6146 39.9465 62.5249 38.7026C62.0273 38.404 61.6044 38.3916 61.2561 38.6653C60.9078 38.9389 60.659 39.3245 60.5098 39.8221L59.8008 32.2095C60.0495 32.8066 60.3107 33.3788 60.5844 33.9261C60.8581 34.4734 61.2934 35.1575 61.8905 35.9785C62.4875 36.7746 63.1219 37.4587 63.7936 38.0309C64.4902 38.6031 65.3858 39.1006 66.4804 39.5235C67.575 39.9216 68.7443 40.1206 69.9882 40.1206C71.7545 40.1206 73.1725 39.7101 74.2422 38.8892C75.312 38.0682 75.822 36.8741 75.7722 35.3068C75.7473 34.4361 75.511 33.64 75.0632 32.9185C74.6154 32.1722 74.0308 31.5502 73.3093 31.0527C72.6128 30.5303 71.8042 30.0203 70.8838 29.5227C69.9633 29.0003 69.0304 28.54 68.085 28.142C67.1397 27.744 66.2068 27.2837 65.2863 26.7613C64.3907 26.2389 63.5697 25.7164 62.8234 25.194C62.1019 24.6467 61.5049 23.9874 61.0322 23.2162C60.5844 22.445 60.3232 21.6116 60.2486 20.716C60.1988 19.7209 60.3481 18.8129 60.6963 17.9919C61.0695 17.1709 61.5671 16.4992 62.189 15.9768C62.811 15.4295 63.5324 14.9693 64.3534 14.5961C65.1992 14.2229 66.0575 13.9617 66.9282 13.8125C67.7989 13.6383 68.6572 13.5512 69.503 13.5512C71.742 13.5512 73.7696 14.1607 75.5856 15.3797C75.9091 15.5539 76.1703 15.5788 76.3693 15.4544C76.5683 15.33 76.7176 15.1558 76.8171 14.9319L76.929 14.5588L77.3768 21.3877C77.1529 20.4921 76.8295 19.6463 76.4066 18.8502C76.0086 18.0541 75.4986 17.2829 74.8766 16.5366C74.2547 15.7653 73.4835 15.1558 72.563 14.708C71.6425 14.2354 70.6225 13.999 69.503 13.999C68.2094 13.999 67.0899 14.3971 66.1446 15.1932C65.2241 15.9644 64.8012 17.1212 64.8758 18.6636ZM104.698 13.999C104.648 14.0985 104.511 14.2229 104.287 14.3722C104.063 14.4966 103.852 14.6334 103.653 14.7827C103.454 14.9071 103.267 15.1185 103.093 15.4171C102.919 15.7156 102.832 16.0763 102.832 16.4992V37.6204C102.832 38.1428 102.956 38.5782 103.205 38.9265C103.479 39.2499 103.777 39.5111 104.101 39.7101C104.449 39.8843 104.648 40.0211 104.698 40.1206H96.3016C96.3762 40.0211 96.5752 39.8843 96.8986 39.7101C97.2469 39.5111 97.5455 39.2499 97.7942 38.9265C98.043 38.5782 98.1674 38.1428 98.1674 37.6204V27.5076H87.6068V37.6204C87.6068 38.1428 87.7312 38.5782 87.98 38.9265C88.2288 39.2499 88.5149 39.5111 88.8383 39.7101C89.1865 39.8843 89.398 40.0211 89.4726 40.1206H81.0764C81.1511 40.0211 81.3501 39.8843 81.6735 39.7101C82.0218 39.5111 82.3203 39.2499 82.5691 38.9265C82.8179 38.5782 82.9422 38.1428 82.9422 37.6204V16.4992C82.9422 16.0763 82.8552 15.7156 82.681 15.4171C82.5318 15.1185 82.3452 14.9071 82.1213 14.7827C81.9223 14.6334 81.7108 14.4966 81.4869 14.3722C81.2879 14.2229 81.1511 14.0985 81.0764 13.999H89.4726C89.398 14.0985 89.1865 14.2478 88.8383 14.4468C88.5149 14.621 88.2288 14.8822 87.98 15.2305C87.7312 15.5539 87.6068 15.9768 87.6068 16.4992V27.0598H98.1674V16.4992C98.1674 16.151 98.1176 15.8524 98.0181 15.6036C97.9186 15.3549 97.7818 15.1558 97.6076 15.0066C97.4584 14.8324 97.2967 14.6956 97.1225 14.5961C96.9484 14.4966 96.7867 14.3971 96.6374 14.2976C96.4881 14.1732 96.3762 14.0737 96.3016 13.999H104.698ZM133.691 30.1571C133.691 30.6795 133.816 31.1149 134.064 31.4632C134.313 31.7866 134.599 32.0478 134.923 32.2468C135.271 32.421 135.482 32.5578 135.557 32.6573H127.161C127.211 32.5578 127.397 32.421 127.721 32.2468C128.069 32.0478 128.367 31.7866 128.616 31.4632C128.89 31.1149 129.027 30.6795 129.027 30.1571V16.4992C129.027 16.151 128.965 15.8524 128.84 15.6036C128.741 15.3549 128.604 15.1558 128.43 15.0066C128.28 14.8324 128.119 14.6956 127.945 14.5961C127.795 14.4966 127.634 14.3971 127.459 14.2976C127.31 14.1732 127.211 14.0737 127.161 13.999H135.557C135.482 14.0985 135.271 14.2478 134.923 14.4468C134.599 14.621 134.313 14.8822 134.064 15.2305C133.816 15.5539 133.691 15.9768 133.691 16.4992V30.1571ZM130.146 37.6204C130.843 38.1428 131.626 38.5782 132.497 38.9265C133.368 39.2499 134.064 39.4987 134.587 39.6728C135.134 39.847 135.458 39.9962 135.557 40.1206H126.937L115.779 28.2539C115.531 28.2788 115.282 28.2913 115.033 28.2913H112.533V37.6204C112.533 38.1428 112.657 38.5782 112.906 38.9265C113.155 39.2499 113.441 39.5111 113.764 39.7101C114.113 39.8843 114.324 40.0211 114.399 40.1206H106.002C106.077 40.0211 106.276 39.8843 106.599 39.7101C106.948 39.5111 107.246 39.2499 107.495 38.9265C107.744 38.5782 107.868 38.1428 107.868 37.6204V16.4992C107.868 15.9768 107.744 15.5539 107.495 15.2305C107.246 14.8822 106.948 14.621 106.599 14.4468C106.276 14.2478 106.077 14.0985 106.002 13.999H114.399C117.906 13.999 120.543 14.6459 122.31 15.9395C124.076 17.2331 124.959 19.0741 124.959 21.4623C124.959 23.2038 124.25 24.6964 122.832 25.9403C121.414 27.1593 119.362 27.9057 116.675 28.1793L130.146 37.6204ZM114.399 27.8435C116.439 27.8435 117.881 27.3584 118.727 26.3881C119.573 25.4179 119.996 23.776 119.996 21.4623C119.996 19.0741 119.561 17.3078 118.69 16.1634C117.819 15.019 116.389 14.4468 114.399 14.4468H112.533V27.8435H114.399ZM155.942 13.999H160.158C160.084 14.0985 159.934 14.2229 159.711 14.3722C159.511 14.4966 159.3 14.6334 159.076 14.7827C158.877 14.9071 158.691 15.1185 158.516 15.4171C158.367 15.7156 158.292 16.0763 158.292 16.4992V40.1206H157.807L139.149 16.2753V37.6204C139.149 38.1428 139.273 38.5782 139.522 38.9265C139.796 39.2499 140.094 39.5111 140.418 39.7101C140.766 39.8843 140.965 40.0211 141.015 40.1206H136.835C136.91 40.0211 137.109 39.8843 137.433 39.7101C137.781 39.5111 138.079 39.2499 138.328 38.9265C138.577 38.5782 138.701 38.1428 138.701 37.6204V16.4992C138.701 15.9768 138.577 15.5539 138.328 15.2305C138.079 14.8822 137.781 14.621 137.433 14.4468C137.109 14.2478 136.91 14.0985 136.835 13.999H142.582L157.807 32.9931V16.4992C157.807 16.0763 157.72 15.7156 157.546 15.4171C157.397 15.1185 157.223 14.9071 157.024 14.7827C156.825 14.6334 156.613 14.4966 156.389 14.3722C156.165 14.2229 156.016 14.0985 155.942 13.999ZM171.959 39.6728C172.905 39.6728 173.763 39.536 174.534 39.2623C175.33 38.9638 175.99 38.6279 176.512 38.2548C177.034 37.8567 177.532 37.3467 178.005 36.7248C178.502 36.078 178.888 35.5182 179.161 35.0456C179.435 34.5729 179.734 33.9883 180.057 33.2917L178.49 40.1206H161.399C161.473 40.0211 161.672 39.8843 161.996 39.7101C162.344 39.5111 162.643 39.2499 162.891 38.9265C163.14 38.5782 163.265 38.1428 163.265 37.6204V16.4992C163.265 16.0763 163.178 15.7156 163.003 15.4171C162.854 15.1185 162.668 14.9071 162.444 14.7827C162.245 14.6334 162.033 14.4966 161.809 14.3722C161.61 14.2229 161.473 14.0985 161.399 13.999H177.893L179.124 19.895C179.074 19.8204 179 19.696 178.9 19.5219C178.477 18.8004 178.141 18.2656 177.893 17.9173C177.669 17.5441 177.321 17.0963 176.848 16.5739C176.375 16.0266 175.915 15.641 175.467 15.4171C175.019 15.1683 174.435 14.9568 173.713 14.7827C173.017 14.5837 172.233 14.4841 171.362 14.4841H167.929V26.2762H171.997C172.494 26.2762 172.905 26.0772 173.228 25.6791C173.576 25.2811 173.838 24.8208 174.012 24.2984C174.211 23.7511 174.36 23.4277 174.46 23.3282V29.7093C174.36 29.6098 174.236 29.3859 174.086 29.0376C173.962 28.6644 173.825 28.3286 173.676 28.0301C173.552 27.7066 173.34 27.4205 173.042 27.1718C172.743 26.8981 172.382 26.7613 171.959 26.7613H167.929V39.6728H171.959Z" fill="#FCFCFC"/>
<path d="M37.8359 27.9849C39.4799 28.0297 41.8418 29.1946 42.8934 32.4732C42.9705 32.7136 43.1902 32.8776 43.4425 32.8879C44.3714 32.9256 46.4093 33.2214 46.5613 35.3104" stroke="#C0304F" stroke-width="0.466595" stroke-linecap="round"/>
<path d="M3.32031 29.8051C3.56916 28.7941 4.50546 27.0148 6.25986 27.9853C6.25986 28.1253 5.83992 22.8995 10.6925 23.8793" stroke="#C0304F" stroke-width="0.466595" stroke-linecap="round"/>
<path d="M4.52344 38.437C4.91227 37.3327 6.0352 35.4135 7.41632 36.5706C7.41632 36.6173 6.90307 31.7647 11.989 32.4179" stroke="#C0304F" stroke-width="0.466595" stroke-linecap="round"/>
<path d="M35.7891 17.3467C37.811 17.6111 41.7801 19.1291 41.4815 23.0858C41.3882 23.1325 44.841 22.0593 45.8208 25.2321" stroke="#C0304F" stroke-width="0.466595" stroke-linecap="round"/>
<path d="M24.1696 5.77369C17.6645 6.17781 10.9059 9.10077 6.5204 13.9223C2.13496 18.7438 -0.199174 25.0844 0.0133363 31.5986C0.225847 38.1127 2.96827 44.2877 7.65865 48.8131C12.349 53.3386 18.6182 55.8583 25.1358 55.8376C31.6533 55.8169 37.9064 53.2574 42.5679 48.7022C47.2294 44.1471 49.9325 37.9548 50.1036 31.4394C50.2747 24.924 47.9004 18.5984 43.4843 13.8048C39.0683 9.01128 32.4968 6.13646 25.9893 5.77368L26.3629 7.34014C32.4605 7.68006 38.1857 10.3826 42.3236 14.8742C46.4614 19.3658 48.6862 25.293 48.5259 31.398C48.3656 37.5029 45.8327 43.3052 41.4648 47.5734C37.0969 51.8416 31.2378 54.2399 25.1307 54.2593C19.0237 54.2787 13.1494 51.9177 8.75451 47.6773C4.35958 43.437 1.7899 37.6509 1.59077 31.5471C1.39165 25.4433 3.57875 19.5021 7.68796 14.9843C11.7972 10.4664 17.5051 7.72759 23.6004 7.34892L24.1696 5.77369Z" fill="#C0304F"/>
<path d="M12.5009 39.9768L5.92188 44.4561L6.10851 45.296L7.275 46.6491L12.0343 50.7085L17.8667 53.8813L22.7193 55.0945L28.5517 54.8612L33.451 53.788L38.7701 51.0351L43.9027 45.9492L44.276 44.3161L37.9769 39.7902L36.8571 40.5367L32.1445 36.8506V35.3575H31.3046V32.0447L31.7712 31.1115L31.2113 31.2048L30.1848 23.2261L29.3449 30.9249L28.5517 30.6449V25.7457C27.8798 25.8203 25.9388 24.3148 25.0523 23.5527C24.3057 24.5979 22.4704 25.4502 21.6461 25.7457V30.6449L20.9462 31.0182L19.9664 23.2261L19.0332 31.1115H18.4266L18.8932 32.0447V35.3575H18.0533V36.9906L13.434 40.5834L12.5009 39.9768Z" fill="#C0304F"/>
<rect x="24.8203" y="0.269531" width="0.559913" height="4.85258" fill="#C0304F"/>
<rect x="23.3359" y="1.76221" width="3.54612" height="0.653232" fill="#C0304F"/>
<path d="M20.8594 36.7103V54.1143H21.7459V34.144H21.326V36.7103H20.8594Z" fill="#232526" stroke="#232526" stroke-width="0.279957"/>
<path d="M29.4375 36.7103V54.1143H28.551V34.144H28.9709V36.7103H29.4375Z" fill="#232526" stroke="#232526" stroke-width="0.279957"/>
<path d="M24.7266 38.4834V50.1016H25.3798V38.4834C25.3798 38.303 25.2336 38.1567 25.0532 38.1567C24.8728 38.1567 24.7266 38.303 24.7266 38.4834Z" fill="#232526" stroke="#232526" stroke-width="0.0933189"/>
<path d="M18.7116 52.7145C18.7116 52.7918 18.7743 52.8545 18.8516 52.8545C18.9289 52.8545 18.9915 52.7918 18.9915 52.7145H18.7116ZM18.7116 36.897V52.7145H18.9915V36.897H18.7116Z" fill="#232526"/>
<path d="M31.3053 53.088C31.3053 53.1653 31.368 53.2279 31.4453 53.2279C31.5226 53.2279 31.5853 53.1653 31.5853 53.088L31.3053 53.088ZM31.3053 37.0371L31.3053 53.088L31.5853 53.088L31.5853 37.0371L31.3053 37.0371Z" fill="#232526"/>
<path d="M6.90625 45.1557L12.3187 41.1897L13.3919 41.9829L18.0579 38.0635" stroke="#232526" stroke-width="0.373276"/>
<path d="M43.2969 45.0629L37.8844 41.0969L36.8112 41.8901L32.1453 37.9707" stroke="#232526" stroke-width="0.373276"/>
<path d="M22.625 27.1918V30.2713H23.0916V27.1915C23.0916 27.0627 22.9871 26.9585 22.8583 26.9585C22.7295 26.9585 22.625 27.0629 22.625 27.1918Z" fill="#232526" stroke="#232526" stroke-width="0.0933189"/>
<path d="M27.1562 27.1918V30.2713H27.6228V27.1915C27.6228 27.0627 27.5184 26.9585 27.3895 26.9585C27.2607 26.9585 27.1562 27.0629 27.1562 27.1918Z" fill="#232526" stroke="#232526" stroke-width="0.0933189"/>
<path d="M21.3281 25.1854V25.5587C22.5599 25.5587 24.361 23.9412 25.1075 23.1324C26.0034 24.4015 28.0315 25.2787 28.9336 25.5587V25.1854L28.0004 24.9988L25.0609 5.49512L22.308 24.9988L21.3281 25.1854Z" fill="#C0304F"/>
</svg>
