<svg width="24" height="25" viewBox="0 0 24 25" fill="none" xmlns="http://www.w3.org/2000/svg">
<path fill-rule="evenodd" clip-rule="evenodd" d="M15.0215 3.61293C15.5299 3.52585 16.0992 3.49677 16.6349 3.58742C17.5918 3.7493 18.4756 4.19403 19.1743 4.86079C19.631 4.87112 20.0798 4.78114 20.4769 4.65288C20.8131 4.54433 21.097 4.41326 21.2959 4.30962C21.3948 4.25809 21.4713 4.21413 21.5209 4.18437C21.5457 4.16952 21.5638 4.15827 21.5745 4.15148L21.584 4.14542C21.8808 3.94769 22.276 3.98617 22.5289 4.23768C22.7818 4.48924 22.8226 4.88416 22.6263 5.18207C22.4186 5.49736 22.1303 6.05943 21.8072 6.68919C21.7564 6.78821 21.7047 6.8889 21.6524 6.99057C21.4671 7.35054 21.2771 7.71435 21.1 8.02648C20.9888 8.22247 20.8699 8.42144 20.75 8.59339V8.86716C20.7576 9.87279 20.6423 10.8732 20.4082 11.8464C20.2609 12.4587 20.0667 13.0603 19.8264 13.6457C19.204 15.1624 18.2856 16.5398 17.1249 17.6976C15.9641 18.8553 14.5844 19.7702 13.0661 20.3887C11.5492 21.0067 9.92444 21.3165 8.28659 21.3001C5.91228 21.3021 3.58791 20.6181 1.59319 19.3301C1.29939 19.1404 1.17569 18.7729 1.29503 18.4441C1.41437 18.1154 1.74506 17.9128 2.09213 17.9557C2.39249 17.9929 2.6949 18.0111 2.99756 18.0101C4.08501 18.007 5.15174 17.7667 6.12561 17.3141C5.81606 17.1732 5.52052 16.9994 5.24437 16.7947C4.43265 16.1928 3.82874 15.3528 3.51667 14.3917C3.43558 14.1419 3.49102 13.8679 3.66283 13.6693C3.66591 13.6658 3.66902 13.6623 3.67215 13.6588C3.48862 13.4951 3.3169 13.3169 3.1588 13.1253C2.44748 12.2631 2.05581 11.1817 2.05002 10.0639L2.05 10.0601L2.05001 10.0101C2.05001 9.74419 2.19077 9.4982 2.41997 9.36348C2.47807 9.32933 2.53965 9.30362 2.603 9.28638C2.26467 8.6113 2.08873 7.86585 2.09001 7.10959C2.08961 6.25283 2.31341 5.41086 2.73917 4.66736C2.86208 4.45272 3.08291 4.31248 3.32944 4.29251C3.57597 4.27253 3.8165 4.37538 3.97236 4.56743C4.93491 5.75344 6.1362 6.7237 7.49819 7.41517C8.19833 7.77062 8.93288 8.04832 9.68867 8.24475C10.1124 8.35488 10.5428 8.43947 10.9776 8.4979C10.9584 7.77464 11.1013 7.05177 11.401 6.38384C11.8407 5.40401 12.5931 4.59784 13.5404 4.09174C13.9415 3.87741 14.474 3.7067 15.0215 3.61293ZM3.74329 11.1604C3.87294 11.5253 4.0658 11.8676 4.31586 12.1707C4.80718 12.7663 5.48913 13.1738 6.24635 13.3245C6.58363 13.3916 6.83207 13.6795 6.84909 14.0229C6.86612 14.3664 6.64737 14.6774 6.31837 14.7776C6.04588 14.8605 5.7667 14.9183 5.48434 14.9504C5.67093 15.1909 5.8904 15.4063 6.13781 15.5898C6.699 16.0059 7.37594 16.2367 8.07445 16.2502C8.39137 16.2563 8.67023 16.461 8.77106 16.7615C8.87189 17.062 8.7729 17.3935 8.5238 17.5895C7.47463 18.415 6.26143 18.9907 4.97588 19.2845C6.04136 19.6258 7.15881 19.8014 8.2891 19.8001L8.2978 19.8C9.73786 19.815 11.1665 19.5429 12.5002 18.9996C13.8339 18.4562 15.0459 17.6526 16.0656 16.6355C17.0852 15.6185 17.892 14.4085 18.4387 13.0762C18.6498 12.562 18.8204 12.0335 18.9498 11.4956C19.1556 10.6399 19.257 9.76019 19.25 8.87592L19.25 8.87006V8.34006C19.25 8.1582 19.3161 7.98254 19.4359 7.84577C19.5052 7.76673 19.6264 7.58417 19.7954 7.28627C19.956 7.00315 20.1338 6.66324 20.3187 6.30406C20.3299 6.28234 20.3411 6.2605 20.3524 6.23856C19.8728 6.34271 19.3293 6.3973 18.7594 6.33571C18.579 6.31621 18.4117 6.23192 18.2887 6.09848C17.7858 5.55315 17.1161 5.19014 16.3847 5.0664C16.0602 5.01149 15.6678 5.02406 15.2747 5.0914C14.8476 5.16456 14.4759 5.29257 14.2472 5.41475C13.593 5.76432 13.0732 6.32116 12.7695 6.99795C12.4658 7.67473 12.3953 8.43318 12.5691 9.15434C12.6245 9.38425 12.5683 9.62683 12.4173 9.80886C12.2663 9.99089 12.0383 10.091 11.8021 10.0791C10.9587 10.0364 10.1242 9.90779 9.31135 9.69652C8.45146 9.47303 7.61572 9.15708 6.81915 8.75267C5.64637 8.15726 4.57832 7.38016 3.65348 6.45247C3.61129 6.66809 3.58987 6.88811 3.59001 7.10956L3.59001 7.11148C3.58897 7.6622 3.72412 8.20463 3.98343 8.69048C4.24274 9.17633 4.61816 9.59052 5.07627 9.89617C5.35429 10.0817 5.47602 10.4288 5.37477 10.7473C5.27351 11.0658 4.97372 11.2789 4.63962 11.2698C4.33702 11.2615 4.03696 11.2247 3.74329 11.1604Z" fill="#C0304F"/>
</svg>
