<svg width="24" height="25" viewBox="0 0 24 25" fill="none" xmlns="http://www.w3.org/2000/svg">
<path d="M8.88595 7.43938C9.06891 7.44428 9.27175 7.45418 9.46474 7.88256C9.59271 8.16774 9.80829 8.69274 9.9839 9.12041C10.1206 9.45319 10.233 9.72704 10.2611 9.78309C10.3254 9.91109 10.365 10.0588 10.2809 10.2311C10.271 10.2514 10.2617 10.2708 10.2526 10.2896C10.1852 10.4296 10.1372 10.5292 10.0237 10.6595C9.97709 10.713 9.9285 10.7717 9.88008 10.8302C9.79494 10.9331 9.71035 11.0353 9.63785 11.1076C9.50924 11.2355 9.37563 11.3734 9.52402 11.6294C9.6725 11.8854 10.1919 12.7274 10.9587 13.4069C11.783 14.1408 12.4998 14.45 12.8622 14.6064C12.9325 14.6367 12.9895 14.6613 13.0313 14.6821C13.2886 14.8101 13.4419 14.7904 13.5903 14.6181C13.7388 14.4457 14.2334 13.8697 14.4066 13.6137C14.5748 13.3577 14.7479 13.3971 14.9854 13.4857C15.2228 13.5743 16.4892 14.1947 16.7464 14.3226C16.7972 14.348 16.8448 14.3708 16.8889 14.3919C17.0678 14.4777 17.1895 14.5361 17.2411 14.623C17.3054 14.7313 17.3054 15.2434 17.0927 15.8441C16.8751 16.4448 15.8263 17.0209 15.3514 17.0652C15.3064 17.0694 15.2617 17.0748 15.2156 17.0804C14.7804 17.133 14.228 17.1999 12.2596 16.4251C9.83424 15.4713 8.23322 13.1049 7.90953 12.6265C7.88398 12.5887 7.86638 12.5627 7.85698 12.5501L7.8515 12.5428C7.70423 12.3457 6.80328 11.1402 6.80328 9.89638C6.80328 8.70635 7.38951 8.08679 7.65689 7.8042C7.67384 7.78629 7.6895 7.76974 7.70366 7.75447C7.94107 7.49848 8.21814 7.43448 8.39125 7.43448C8.56445 7.43448 8.73756 7.43448 8.88595 7.43938Z" fill="#C0304F"/>
<path fill-rule="evenodd" clip-rule="evenodd" d="M2.18418 21.601C2.10236 21.8979 2.37285 22.1721 2.6709 22.0942L7.27824 20.8908C8.7326 21.6786 10.37 22.0971 12.0371 22.0971H12.0421C17.5281 22.0971 22 17.651 22 12.1858C22 9.53688 20.966 7.04547 19.0863 5.17444C17.2065 3.3035 14.7084 2.26953 12.042 2.26953C6.55607 2.26953 2.08411 6.71558 2.08411 12.1809C2.08348 13.9195 2.5424 15.6277 3.41479 17.134L2.18418 21.601ZM4.86092 17.5324C4.96774 17.1447 4.91437 16.7303 4.71281 16.3823C3.97266 15.1043 3.58358 13.655 3.58411 12.1809C3.58411 7.55112 7.37738 3.76953 12.042 3.76953C14.3119 3.76953 16.4296 4.64652 18.0281 6.23758C19.6248 7.8269 20.5 9.93564 20.5 12.1858C20.5 16.8155 16.7068 20.5971 12.0421 20.5971H12.0371C10.6206 20.5971 9.22863 20.2413 7.99266 19.5719C7.65814 19.3907 7.26726 19.3433 6.89916 19.4395L4.13676 20.161L4.86092 17.5324Z" fill="#C0304F"/>
</svg>
