<svg width="24" height="25" viewBox="0 0 24 25" fill="none" xmlns="http://www.w3.org/2000/svg">
<path fill-rule="evenodd" clip-rule="evenodd" d="M10.3859 8.62742C10.1542 8.4884 9.86561 8.48476 9.63048 8.61789C9.39534 8.75102 9.25 9.00033 9.25 9.27054V15.2705C9.25 15.5407 9.39534 15.7901 9.63048 15.9232C9.86561 16.0563 10.1542 16.0527 10.3859 15.9137L15.3859 12.9137C15.6118 12.7781 15.75 12.534 15.75 12.2705C15.75 12.0071 15.6118 11.763 15.3859 11.6274L10.3859 8.62742ZM13.5423 12.2705L10.75 13.9459V10.5952L13.5423 12.2705Z" fill="#C0304F"/>
<path fill-rule="evenodd" clip-rule="evenodd" d="M17.0307 4.91182C13.682 4.64984 10.318 4.64984 6.96938 4.91182L4.72868 5.08712C3.36612 5.19372 2.25143 6.21493 2.02619 7.56297C1.50543 10.6797 1.50543 13.8613 2.02619 16.9781C2.25143 18.3261 3.36612 19.3474 4.72868 19.454L6.96938 19.6293C10.318 19.8912 13.682 19.8912 17.0307 19.6293L19.2714 19.454C20.6339 19.3474 21.7486 18.3261 21.9739 16.9781C22.4946 13.8613 22.4946 10.6797 21.9739 7.56297C21.7486 6.21493 20.6339 5.19372 19.2714 5.08712L17.0307 4.91182ZM7.08638 6.40725C10.3572 6.15136 13.6429 6.15136 16.9137 6.40725L19.1544 6.58255C19.83 6.63541 20.3827 7.14176 20.4944 7.81017C20.9878 10.7633 20.9878 13.7778 20.4944 16.7309C20.3827 17.3993 19.83 17.9057 19.1544 17.9585L16.9137 18.1338C13.6429 18.3897 10.3571 18.3897 7.08638 18.1338L4.84568 17.9585C4.17007 17.9057 3.61736 17.3993 3.50568 16.7309C3.01227 13.7778 3.01227 10.7633 3.50568 7.81017C3.61736 7.14176 4.17007 6.63541 4.84568 6.58255L7.08638 6.40725Z" fill="#C0304F"/>
</svg>
