<svg width="238" height="73" viewBox="0 0 238 73" fill="none" xmlns="http://www.w3.org/2000/svg">
<circle cx="170.608" cy="10.3431" r="4.20829" fill="#232526"/>
<path d="M84.3716 24.5066C84.4687 25.7038 84.8893 26.7715 85.6334 27.7098C86.3776 28.6481 87.3159 29.4246 88.4483 30.0393C89.5807 30.6541 90.8264 31.2526 92.1853 31.835C93.5442 32.4174 94.8869 33.0321 96.2135 33.6792C97.5724 34.294 98.8019 34.9896 99.9019 35.7661C101.034 36.5427 101.94 37.5457 102.62 38.7751C103.299 39.9723 103.639 41.3474 103.639 42.9004C103.639 45.9741 102.458 48.4331 100.096 50.2773C97.7665 52.0892 94.7413 52.9951 91.0205 52.9951C87.2673 52.9951 84.0319 52.1862 81.3141 50.5685C80.667 50.1802 80.1169 50.1641 79.664 50.52C79.211 50.8759 78.8874 51.3774 78.6933 52.0245L77.7712 42.1239C78.0947 42.9004 78.4345 43.6445 78.7904 44.3564C79.1463 45.0682 79.7125 45.9579 80.489 47.0256C81.2655 48.061 82.0906 48.9507 82.9642 49.6949C83.8701 50.4391 85.0349 51.0862 86.4585 51.6362C87.8821 52.1539 89.4028 52.4127 91.0205 52.4127C93.3177 52.4127 95.1619 51.8789 96.5532 50.8112C97.9445 49.7434 98.6077 48.1904 98.543 46.1521C98.5107 45.0196 98.2033 43.9843 97.6209 43.046C97.0385 42.0753 96.2782 41.2665 95.3399 40.6194C94.434 39.9399 93.3824 39.2766 92.1853 38.6295C90.9882 37.9501 89.7749 37.3515 88.5454 36.8338C87.3159 36.3162 86.1026 35.7176 84.9054 35.0381C83.7407 34.3587 82.673 33.6792 81.7023 32.9998C80.764 32.288 79.9875 31.4306 79.3728 30.4276C78.7904 29.4246 78.4506 28.3407 78.3536 27.1759C78.2889 25.8817 78.483 24.7008 78.936 23.6331C79.4213 22.5653 80.0684 21.6918 80.8773 21.0123C81.6861 20.3005 82.6244 19.7019 83.6921 19.2166C84.7922 18.7313 85.9084 18.3916 87.0409 18.1974C88.1733 17.971 89.2895 17.8577 90.3896 17.8577C93.3015 17.8577 95.9385 18.6504 98.3004 20.2358C98.721 20.4623 99.0607 20.4946 99.3195 20.3329C99.5784 20.1711 99.7725 19.9446 99.9019 19.6534L100.048 19.1681L100.63 28.0495C100.339 26.8847 99.9181 25.7847 99.3681 24.7493C98.8504 23.7139 98.1871 22.7109 97.3783 21.7403C96.5694 20.7373 95.5664 19.9446 94.3692 19.3622C93.1721 18.7475 91.8456 18.4401 90.3896 18.4401C88.7071 18.4401 87.2512 18.9578 86.0217 19.9931C84.8246 20.9961 84.2745 22.5006 84.3716 24.5066ZM136.162 18.4401C136.098 18.5695 135.92 18.7313 135.629 18.9254C135.337 19.0872 135.062 19.2651 134.803 19.4593C134.545 19.621 134.302 19.8961 134.076 20.2843C133.849 20.6726 133.736 21.1417 133.736 21.6918V49.1611C133.736 49.8405 133.898 50.4067 134.221 50.8597C134.577 51.2803 134.965 51.62 135.386 51.8789C135.839 52.1053 136.098 52.2833 136.162 52.4127H125.243C125.34 52.2833 125.599 52.1053 126.019 51.8789C126.472 51.62 126.86 51.2803 127.184 50.8597C127.507 50.4067 127.669 49.8405 127.669 49.1611V36.0088H113.935V49.1611C113.935 49.8405 114.096 50.4067 114.42 50.8597C114.743 51.2803 115.116 51.62 115.536 51.8789C115.989 52.1053 116.264 52.2833 116.361 52.4127H105.441C105.539 52.2833 105.797 52.1053 106.218 51.8789C106.671 51.62 107.059 51.2803 107.383 50.8597C107.706 50.4067 107.868 49.8405 107.868 49.1611V21.6918C107.868 21.1417 107.755 20.6726 107.528 20.2843C107.334 19.8961 107.092 19.621 106.8 19.4593C106.542 19.2651 106.266 19.0872 105.975 18.9254C105.716 18.7313 105.539 18.5695 105.441 18.4401H116.361C116.264 18.5695 115.989 18.7636 115.536 19.0225C115.116 19.249 114.743 19.5887 114.42 20.0417C114.096 20.4623 113.935 21.0123 113.935 21.6918V35.4264H127.669V21.6918C127.669 21.2388 127.605 20.8505 127.475 20.527C127.346 20.2034 127.168 19.9446 126.941 19.7505C126.747 19.524 126.537 19.346 126.31 19.2166C126.084 19.0872 125.874 18.9578 125.679 18.8284C125.485 18.6666 125.34 18.5372 125.243 18.4401H136.162ZM173.87 39.4546C173.87 40.134 174.032 40.7003 174.355 41.1532C174.679 41.5738 175.051 41.9136 175.472 42.1724C175.925 42.3989 176.2 42.5768 176.297 42.7063H165.377C165.442 42.5768 165.684 42.3989 166.105 42.1724C166.558 41.9136 166.946 41.5738 167.27 41.1532C167.626 40.7003 167.804 40.134 167.804 39.4546V21.6918C167.804 21.2388 167.723 20.8505 167.561 20.527C167.431 20.2034 167.254 19.9446 167.027 19.7505C166.833 19.524 166.623 19.346 166.396 19.2166C166.202 19.0872 165.992 18.9578 165.765 18.8284C165.571 18.6666 165.442 18.5372 165.377 18.4401H176.297C176.2 18.5695 175.925 18.7636 175.472 19.0225C175.051 19.249 174.679 19.5887 174.355 20.0417C174.032 20.4623 173.87 21.0123 173.87 21.6918V39.4546ZM169.26 49.1611C170.165 49.8405 171.185 50.4067 172.317 50.8597C173.45 51.2803 174.355 51.6038 175.035 51.8303C175.747 52.0568 176.167 52.2509 176.297 52.4127H165.086L150.575 36.9794C150.251 37.0118 149.928 37.028 149.604 37.028H146.352V49.1611C146.352 49.8405 146.514 50.4067 146.838 50.8597C147.161 51.2803 147.533 51.62 147.954 51.8789C148.407 52.1053 148.682 52.2833 148.779 52.4127H137.859C137.956 52.2833 138.215 52.1053 138.636 51.8789C139.089 51.62 139.477 51.2803 139.8 50.8597C140.124 50.4067 140.286 49.8405 140.286 49.1611V21.6918C140.286 21.0123 140.124 20.4623 139.8 20.0417C139.477 19.5887 139.089 19.249 138.636 19.0225C138.215 18.7636 137.956 18.5695 137.859 18.4401H148.779C153.341 18.4401 156.771 19.2813 159.068 20.9638C161.365 22.6462 162.514 25.0405 162.514 28.1466C162.514 30.4114 161.591 32.3527 159.747 33.9704C157.903 35.5558 155.234 36.5265 151.739 36.8824L169.26 49.1611ZM148.779 36.4456C151.432 36.4456 153.309 35.8147 154.409 34.5528C155.509 33.291 156.059 31.1556 156.059 28.1466C156.059 25.0405 155.493 22.7433 154.36 21.255C153.228 19.7666 151.367 19.0225 148.779 19.0225H146.352V36.4456H148.779ZM202.808 18.4401H208.292C208.195 18.5695 208.001 18.7313 207.71 18.9254C207.451 19.0872 207.176 19.2651 206.885 19.4593C206.626 19.621 206.383 19.8961 206.157 20.2843C205.962 20.6726 205.865 21.1417 205.865 21.6918V52.4127H205.235L180.968 21.4006V49.1611C180.968 49.8405 181.13 50.4067 181.454 50.8597C181.81 51.2803 182.198 51.62 182.618 51.8789C183.071 52.1053 183.33 52.2833 183.395 52.4127H177.959C178.056 52.2833 178.315 52.1053 178.736 51.8789C179.189 51.62 179.577 51.2803 179.901 50.8597C180.224 50.4067 180.386 49.8405 180.386 49.1611V21.6918C180.386 21.0123 180.224 20.4623 179.901 20.0417C179.577 19.5887 179.189 19.249 178.736 19.0225C178.315 18.7636 178.056 18.5695 177.959 18.4401H185.433L205.235 43.143V21.6918C205.235 21.1417 205.121 20.6726 204.895 20.2843C204.701 19.8961 204.474 19.621 204.215 19.4593C203.956 19.2651 203.681 19.0872 203.39 18.9254C203.099 18.7313 202.905 18.5695 202.808 18.4401ZM223.64 51.8303C224.869 51.8303 225.986 51.6524 226.989 51.2965C228.024 50.9082 228.881 50.4714 229.561 49.9861C230.24 49.4684 230.887 48.8052 231.502 47.9963C232.149 47.1551 232.651 46.4271 233.007 45.8123C233.363 45.1976 233.751 44.4372 234.172 43.5313L232.133 52.4127H209.905C210.002 52.2833 210.261 52.1053 210.682 51.8789C211.135 51.62 211.523 51.2803 211.847 50.8597C212.17 50.4067 212.332 49.8405 212.332 49.1611V21.6918C212.332 21.1417 212.219 20.6726 211.992 20.2843C211.798 19.8961 211.555 19.621 211.264 19.4593C211.005 19.2651 210.73 19.0872 210.439 18.9254C210.18 18.7313 210.002 18.5695 209.905 18.4401H231.357L232.958 26.1082C232.893 26.0111 232.796 25.8494 232.667 25.6229C232.117 24.6846 231.68 23.989 231.357 23.536C231.065 23.0507 230.612 22.4683 229.998 21.7888C229.383 21.077 228.784 20.5755 228.202 20.2843C227.62 19.9608 226.859 19.6858 225.921 19.4593C225.015 19.2004 223.996 19.071 222.863 19.071H218.399V34.4072H223.689C224.336 34.4072 224.869 34.1484 225.29 33.6307C225.743 33.113 226.083 32.5145 226.309 31.835C226.568 31.1232 226.762 30.7026 226.892 30.5732V38.8722C226.762 38.7428 226.6 38.4516 226.406 37.9986C226.245 37.5133 226.067 37.0765 225.872 36.6882C225.711 36.2676 225.436 35.8956 225.047 35.572C224.659 35.2161 224.19 35.0381 223.64 35.0381H218.399V51.8303H223.64Z" fill="#232526"/>
<path d="M49.2141 36.0453C51.3521 36.1036 54.424 37.6187 55.7916 41.8826C55.8919 42.1953 56.1776 42.4086 56.5058 42.422C57.7139 42.4711 60.3643 42.8557 60.5619 45.5726" stroke="#232526" stroke-width="0.606833" stroke-linecap="round"/>
<path d="M4.30862 38.4119C4.63227 37.0971 5.84998 34.783 8.13167 36.0452C8.13167 36.2273 7.58552 29.4308 13.8966 30.7051" stroke="#232526" stroke-width="0.606833" stroke-linecap="round"/>
<path d="M5.88638 49.6386C6.39208 48.2024 7.85252 45.7063 9.64875 47.2113C9.64875 47.2719 8.98123 40.9609 15.5957 41.8104" stroke="#232526" stroke-width="0.606833" stroke-linecap="round"/>
<path d="M46.5441 22.21C49.1737 22.5538 54.3358 24.5281 53.9474 29.674C53.8261 29.7347 58.3166 28.339 59.591 32.4654" stroke="#232526" stroke-width="0.606833" stroke-linecap="round"/>
<path d="M31.434 7.1583C22.9738 7.68389 14.1837 11.4854 8.48017 17.756C2.77663 24.0267 -0.259038 32.273 0.0173447 40.7451C0.293727 49.2171 3.86041 57.248 9.96052 63.1336C16.0606 69.0192 24.214 72.2963 32.6905 72.2693C41.167 72.2424 49.2994 68.9136 55.362 62.9894C61.4246 57.0651 64.9401 49.0117 65.1627 40.538C65.3852 32.0644 62.2972 23.8376 56.5539 17.6033C50.8107 11.369 42.264 7.63011 33.8006 7.15829L34.2865 9.19556C42.2168 9.63765 49.6628 13.1524 55.0443 18.994C60.4258 24.8356 63.3193 32.5443 63.1108 40.4842C62.9022 48.424 59.6081 55.9702 53.9274 61.5213C48.2467 67.0724 40.6266 70.1915 32.684 70.2167C24.7414 70.2419 17.1016 67.1713 11.3857 61.6565C5.66988 56.1416 2.32787 48.6165 2.06889 40.6781C1.80992 32.7398 4.65437 25.0129 9.99864 19.1372C15.3429 13.2615 22.7664 9.69946 30.6937 9.20698L31.434 7.1583Z" fill="#232526"/>
<path d="M16.2631 51.6412L7.70673 57.4668L7.94946 58.5591L9.46654 60.3189L15.6562 65.5984L23.2417 69.7248L29.5527 71.3026L37.1381 70.9992L43.5099 69.6035L50.4278 66.0231L57.103 59.4087L57.5884 57.2847L49.3962 51.3985L47.9398 52.3694L41.8108 47.5754V45.6335H40.7185V41.325L41.3253 40.1114L40.5971 40.2327L39.2621 29.8559L38.1698 39.8686L37.1381 39.5045V33.1328C36.2643 33.2299 33.7399 31.2718 32.5869 30.2806C31.616 31.64 29.2291 32.7484 28.157 33.1328V39.5045L27.2468 39.99L25.9724 29.8559L24.7587 40.1114H23.9699L24.5767 41.325V45.6335H23.4844V47.7575L17.4767 52.4301L16.2631 51.6412Z" fill="#232526"/>
<rect x="32.2834" y="-3.05176e-05" width="0.7282" height="6.31107" fill="#232526"/>
<rect x="30.3417" y="1.94125" width="4.61193" height="0.849567" fill="#232526"/>
<path d="M27.1254 47.3933V70.0282H28.2784V44.0558H27.7322V47.3933H27.1254Z" fill="#ECF2FF"/>
<path d="M38.291 47.3933V70.0282H37.1381V44.0558H37.6842V47.3933H38.291Z" fill="#ECF2FF"/>
<path d="M32.1621 49.699V64.8091H33.0116V49.699C33.0116 49.4644 32.8215 49.2742 32.5869 49.2742C32.3523 49.2742 32.1621 49.4644 32.1621 49.699Z" fill="#ECF2FF"/>
<path d="M24.3341 68.2076C24.3341 68.3082 24.4156 68.3897 24.5162 68.3897C24.6167 68.3897 24.6982 68.3082 24.6982 68.2076H24.3341ZM24.3341 47.636V68.2076H24.6982V47.636H24.3341Z" fill="#ECF2FF"/>
<path d="M40.7186 68.6932C40.7186 68.7937 40.8001 68.8752 40.9006 68.8752C41.0011 68.8752 41.0827 68.7937 41.0827 68.6932L40.7186 68.6932ZM40.7186 47.8181L40.7186 68.6932L41.0827 68.6932L41.0827 47.8181L40.7186 47.8181Z" fill="#ECF2FF"/>
<path d="M8.98111 58.3771L16.0204 53.219L17.4161 54.2507L23.4844 49.1533" stroke="#ECF2FF" stroke-width="0.485467"/>
<path d="M56.3141 58.2562L49.2748 53.0981L47.8791 54.1297L41.8107 49.0323" stroke="#ECF2FF" stroke-width="0.485467"/>
<path d="M29.4316 35.0135V39.0186H30.0384V35.0132C30.0384 34.8456 29.9026 34.7101 29.735 34.7101C29.5674 34.7101 29.4316 34.846 29.4316 35.0135Z" fill="#ECF2FF"/>
<path d="M35.3176 35.0135V39.0186H35.9245V35.0132C35.9245 34.8456 35.7886 34.7101 35.621 34.7101C35.4535 34.7101 35.3176 34.846 35.3176 35.0135Z" fill="#ECF2FF"/>
<path d="M27.7322 32.4045V32.89C29.3342 32.89 31.6766 30.7863 32.6475 29.7345C33.8126 31.3851 36.4504 32.5259 37.6236 32.89V32.4045L36.4099 32.1618L32.5868 6.79617L29.0065 32.1618L27.7322 32.4045Z" fill="#232526"/>
</svg>
