<svg width="66" height="73" viewBox="0 0 66 73" fill="none" xmlns="http://www.w3.org/2000/svg">
<path d="M49.2141 36.0453C51.3521 36.1036 54.424 37.6187 55.7916 41.8826C55.8919 42.1953 56.1776 42.4086 56.5058 42.422C57.7139 42.4711 60.3643 42.8557 60.5619 45.5726" stroke="#232526" stroke-width="0.606833" stroke-linecap="round"/>
<path d="M4.30862 38.4119C4.63227 37.0971 5.84998 34.783 8.13167 36.0452C8.13167 36.2273 7.58552 29.4308 13.8966 30.7051" stroke="#232526" stroke-width="0.606833" stroke-linecap="round"/>
<path d="M5.88638 49.6386C6.39208 48.2024 7.85252 45.7063 9.64875 47.2113C9.64875 47.2719 8.98123 40.9609 15.5957 41.8104" stroke="#232526" stroke-width="0.606833" stroke-linecap="round"/>
<path d="M46.5441 22.21C49.1737 22.5538 54.3358 24.5281 53.9474 29.674C53.8261 29.7347 58.3166 28.339 59.591 32.4654" stroke="#232526" stroke-width="0.606833" stroke-linecap="round"/>
<path d="M31.434 7.1583C22.9738 7.68389 14.1837 11.4854 8.48017 17.756C2.77663 24.0267 -0.259038 32.273 0.0173447 40.7451C0.293727 49.2171 3.86041 57.248 9.96052 63.1336C16.0606 69.0192 24.214 72.2963 32.6905 72.2693C41.167 72.2424 49.2994 68.9136 55.362 62.9894C61.4246 57.0651 64.9401 49.0117 65.1627 40.538C65.3852 32.0644 62.2972 23.8376 56.5539 17.6033C50.8107 11.369 42.264 7.63011 33.8006 7.15829L34.2865 9.19556C42.2168 9.63765 49.6628 13.1524 55.0443 18.994C60.4258 24.8356 63.3193 32.5443 63.1108 40.4842C62.9022 48.424 59.6081 55.9702 53.9274 61.5213C48.2467 67.0724 40.6266 70.1915 32.684 70.2167C24.7414 70.2419 17.1016 67.1713 11.3857 61.6565C5.66988 56.1416 2.32787 48.6165 2.06889 40.6781C1.80992 32.7398 4.65437 25.0129 9.99864 19.1372C15.3429 13.2615 22.7664 9.69946 30.6937 9.20698L31.434 7.1583Z" fill="#232526"/>
<path d="M16.2631 51.6412L7.70673 57.4668L7.94946 58.5591L9.46654 60.3189L15.6562 65.5984L23.2417 69.7248L29.5527 71.3026L37.1381 70.9992L43.5099 69.6035L50.4278 66.0231L57.103 59.4087L57.5884 57.2847L49.3962 51.3985L47.9398 52.3694L41.8108 47.5754V45.6335H40.7185V41.325L41.3253 40.1114L40.5971 40.2327L39.2621 29.8559L38.1698 39.8686L37.1381 39.5045V33.1328C36.2643 33.2299 33.7399 31.2718 32.5869 30.2806C31.616 31.64 29.2291 32.7484 28.157 33.1328V39.5045L27.2468 39.99L25.9724 29.8559L24.7587 40.1114H23.9699L24.5767 41.325V45.6335H23.4844V47.7575L17.4767 52.4301L16.2631 51.6412Z" fill="#232526"/>
<rect x="32.2834" y="-3.05176e-05" width="0.7282" height="6.31107" fill="#232526"/>
<rect x="30.3417" y="1.94125" width="4.61193" height="0.849567" fill="#232526"/>
<path d="M27.1254 47.3933V70.0282H28.2784V44.0558H27.7322V47.3933H27.1254Z" fill="#ECF2FF"/>
<path d="M38.291 47.3933V70.0282H37.1381V44.0558H37.6842V47.3933H38.291Z" fill="#ECF2FF"/>
<path d="M32.1621 49.699V64.8091H33.0116V49.699C33.0116 49.4644 32.8215 49.2742 32.5869 49.2742C32.3523 49.2742 32.1621 49.4644 32.1621 49.699Z" fill="#ECF2FF"/>
<path d="M24.3341 68.2076C24.3341 68.3082 24.4156 68.3897 24.5162 68.3897C24.6167 68.3897 24.6982 68.3082 24.6982 68.2076H24.3341ZM24.3341 47.636V68.2076H24.6982V47.636H24.3341Z" fill="#ECF2FF"/>
<path d="M40.7186 68.6932C40.7186 68.7937 40.8001 68.8752 40.9006 68.8752C41.0011 68.8752 41.0827 68.7937 41.0827 68.6932L40.7186 68.6932ZM40.7186 47.8181L40.7186 68.6932L41.0827 68.6932L41.0827 47.8181L40.7186 47.8181Z" fill="#ECF2FF"/>
<path d="M8.98111 58.3771L16.0204 53.219L17.4161 54.2507L23.4844 49.1533" stroke="#ECF2FF" stroke-width="0.485467"/>
<path d="M56.3141 58.2562L49.2748 53.0981L47.8791 54.1297L41.8107 49.0323" stroke="#ECF2FF" stroke-width="0.485467"/>
<path d="M29.4316 35.0135V39.0186H30.0384V35.0132C30.0384 34.8456 29.9026 34.7101 29.735 34.7101C29.5674 34.7101 29.4316 34.846 29.4316 35.0135Z" fill="#ECF2FF"/>
<path d="M35.3176 35.0135V39.0186H35.9245V35.0132C35.9245 34.8456 35.7886 34.7101 35.621 34.7101C35.4535 34.7101 35.3176 34.846 35.3176 35.0135Z" fill="#ECF2FF"/>
<path d="M27.7322 32.4045V32.89C29.3342 32.89 31.6766 30.7863 32.6475 29.7345C33.8126 31.3851 36.4504 32.5259 37.6236 32.89V32.4045L36.4099 32.1618L32.5868 6.79617L29.0065 32.1618L27.7322 32.4045Z" fill="#232526"/>
</svg>
